HIERARCHY
ROOT Hips
{
	OFFSET -3.958830 18.904000 13.208200
	CHANNELS 6 Xposition Yposition Zposition Zrotation Yrotation Xrotation 
	JOINT LHipJoint
	{
		OFFSET 0.000000 0.000000 0.000000
		CHANNELS 3 Zrotation Yrotation Xrotation
		JOINT LeftUpLeg
		{
			OFFSET 1.800000 -1.400000 0.085000
			CHANNELS 3 Zrotation Yrotation Xrotation
			JOINT LeftLeg
			{
				OFFSET 2.215000 -6.000000 0.000000
				CHANNELS 3 Zrotation Yrotation Xrotation
				JOINT LeftFoot
				{
					OFFSET 2.500000 -6.900000 0.000000
					CHANNELS 3 Zrotation Yrotation Xrotation
					JOINT LeftToeBase
					{
						OFFSET 0.200000 -0.500000 1.950000
						CHANNELS 3 Zrotation Yrotation Xrotation
						End Site
						{
							OFFSET 0.000000 0.000000 0.000000
						}
					}
				}
			}
		}
	}
	JOINT RHipJoint
	{
		OFFSET 0.000000 0.000000 0.000000
		CHANNELS 3 Zrotation Yrotation Xrotation
		JOINT RightUpLeg
		{
			OFFSET -1.800000 -1.400000 0.085000
			CHANNELS 3 Zrotation Yrotation Xrotation
			JOINT RightLeg
			{
				OFFSET -2.215000 -6.000000 0.000000
				CHANNELS 3 Zrotation Yrotation Xrotation
				JOINT RightFoot
				{
					OFFSET -2.500000 -6.900000 0.000000
					CHANNELS 3 Zrotation Yrotation Xrotation
					JOINT RightToeBase
					{
						OFFSET -0.200000 -0.500000 1.950000
						CHANNELS 3 Zrotation Yrotation Xrotation
						End Site
						{
							OFFSET 0.000000 0.000000 0.000000
						}
					}
				}
			}
		}
	}
	JOINT LowerBack
	{
		OFFSET 0.000000 0.000000 0.000000
		CHANNELS 3 Zrotation Yrotation Xrotation
		JOINT Spine
		{
			OFFSET -0.087000 1.940000 -0.288900
			CHANNELS 3 Zrotation Yrotation Xrotation
			JOINT Spine1
			{
				OFFSET 0.000000 1.950000 0.060000
				CHANNELS 3 Zrotation Yrotation Xrotation
				JOINT Neck
				{
					OFFSET 0.000000 0.000000 0.000000
					CHANNELS 3 Zrotation Yrotation Xrotation
					JOINT Neck1
					{
						OFFSET 0.000000 1.600000 0.340000
						CHANNELS 3 Zrotation Yrotation Xrotation
						JOINT Head
						{
							OFFSET 0.000000 1.667000 -0.240000
							CHANNELS 3 Zrotation Yrotation Xrotation
							End Site
							{
								OFFSET 0.000000 0.000000 0.000000
							}
						}
					}
				}
				JOINT LeftShoulder
				{
					OFFSET 0.000000 0.000000 0.000000
					CHANNELS 3 Zrotation Yrotation Xrotation
					JOINT LeftArm
					{
						OFFSET 2.700000 1.550000 -0.730000
						CHANNELS 3 Zrotation Yrotation Xrotation
						JOINT LeftForeArm
						{
							OFFSET 5.450000 0.000000 0.000000
							CHANNELS 3 Zrotation Yrotation Xrotation
							JOINT LeftHand
							{
								OFFSET 3.450000 0.000000 0.000000
								CHANNELS 3 Zrotation Yrotation Xrotation
								JOINT LeftHandIndex1
								{
									OFFSET 0.750000 0.000000 0.000000
									CHANNELS 3 Zrotation Yrotation Xrotation
									End Site
									{
										OFFSET 0.000000 0.000000 0.000000
									}
								}
							}
						}
					}
				}
				JOINT RightShoulder
				{
					OFFSET 0.000000 0.000000 0.000000
					CHANNELS 3 Zrotation Yrotation Xrotation
					JOINT RightArm
					{
						OFFSET -2.700000 1.550000 -0.730000
						CHANNELS 3 Zrotation Yrotation Xrotation
						JOINT RightForeArm
						{
							OFFSET -5.450000 0.000000 0.000000
							CHANNELS 3 Zrotation Yrotation Xrotation
							JOINT RightHand
							{
								OFFSET -3.450000 0.000000 0.000000
								CHANNELS 3 Zrotation Yrotation Xrotation
								JOINT RightHandIndex1
								{
									OFFSET -0.750000 0.000000 0.000000
									CHANNELS 3 Zrotation Yrotation Xrotation
									End Site
									{
										OFFSET 0.000000 0.000000 0.000000
									}
								}
							}
						}
					}
				}
			}
		}
	}
}
MOTION
Frames: 6
Frame Time: 0.016667
-0.113750 17.568530 -2.411430 -5.679054 -0.334018 -2.314423 -14.927584 12.771522 1.919055 4.995415 -0.714598 -7.719800 -4.530185 6.116985 16.498813 -0.926822 4.990071 3.136021 -0.117940 -0.531560 -0.032390 18.804535 -9.442052 4.528024 -4.089291 11.035527 -41.881635 6.242609 -16.936209 66.092852 -1.671067 -11.083031 0.734267 -0.085470 0.820910 0.185770 -4.715596 -1.933029 -7.553215 21.434296 -6.554555 10.836443 -10.647665 -3.590354 11.354583 2.767684 -6.708072 -9.355512 -14.395067 8.282875 32.232348 -6.986350 6.610420 -6.484150 -11.276407 1.563029 3.020129 -42.388369 -1.559682 -2.628637 -118.606255 -70.089636 86.929575 -4.319723 2.611505 0.684800 0.438740 -0.315480 0.084760 5.417353 0.231696 5.666708 41.029470 -6.656484 -9.532357 59.023081 50.329600 22.226177 1.672141 -1.606813 -0.681260 0.635840 0.483330 -0.267590 
-0.082730 17.465940 -2.458530 -5.738256 -1.485385 -2.800712 -14.948934 12.706289 1.822244 4.883015 -0.710285 -7.669243 -4.233149 6.309231 18.066740 -0.883253 5.041765 3.081308 -0.063990 -0.461420 0.017750 18.824341 -9.113775 4.915422 -5.442932 12.208354 -45.472655 7.206198 -19.131049 70.545057 -1.979723 -12.061754 0.464084 -0.079760 0.727750 0.178680 -4.706724 -2.160348 -7.763508 21.378213 -7.431121 12.729827 -10.586703 -4.074640 11.450111 2.935076 -7.140393 -10.011736 -15.680296 9.202177 33.486446 -7.430010 7.059470 -8.703490 -11.432652 0.238542 3.535312 -40.140304 0.050628 -3.864277 -116.968825 -69.986671 84.375718 -4.255088 2.598317 0.738650 0.360510 -0.236310 0.081870 5.341689 1.878535 6.058482 38.693045 -6.402031 -9.577284 61.095462 52.007904 23.989755 1.717792 -1.584513 -0.641690 0.621940 0.442700 -0.274470 
-0.061890 17.352670 -2.522400 -5.400292 -2.646966 -4.112472 -14.992730 12.750900 1.791180 4.567955 -0.680557 -7.509438 -3.918931 6.696465 20.704265 -0.770711 5.184131 2.978656 0.020880 -0.341240 0.072470 18.792211 -8.844228 5.235995 -6.746522 13.104021 -47.992289 7.739898 -20.925488 74.570996 -2.271534 -12.893047 0.253056 -0.069820 0.597500 0.174880 -4.584822 -2.518575 -8.034173 20.051223 -8.107080 16.456217 -10.044672 -4.461963 10.817903 3.158183 -7.425556 -10.590312 -16.798857 10.043404 35.006649 -7.807290 7.479560 -11.371520 -12.405995 -1.211493 3.807199 -36.960144 1.604982 -5.148603 -114.773148 -70.334067 81.956181 -4.158169 2.591016 0.778930 0.260430 -0.137590 0.088360 5.991374 3.703690 6.447000 36.035128 -6.269372 -9.671837 63.001367 54.438759 26.159014 1.795025 -1.574578 -0.559770 0.573250 0.372220 -0.268170 
-0.039010 17.230740 -2.584290 -5.094839 -3.154639 -6.059269 -15.056816 12.878317 1.806270 4.442652 -0.801837 -7.503263 -3.519798 7.229451 24.303612 -0.632536 5.514566 2.807443 0.086720 -0.257250 0.132070 18.717569 -8.645948 5.421614 -7.764603 13.431295 -49.211469 7.919767 -22.522844 78.037127 -2.525403 -13.579568 0.074714 -0.075380 0.470080 0.182060 -4.368907 -2.978547 -8.272598 18.336485 -8.830377 20.990415 -9.120686 -5.039403 9.952482 3.411908 -7.653018 -11.135829 -17.852851 10.578516 36.393926 -8.514320 7.595770 -14.338890 -13.483898 -2.625608 4.016072 -34.069020 3.045117 -6.328736 -110.839867 -71.012602 78.017023 -4.086350 2.563723 0.824500 0.159230 -0.038090 0.083100 6.745127 5.473912 6.889384 33.863803 -6.392085 -10.109495 64.143004 57.798960 28.518144 1.884723 -1.543902 -0.485040 0.523910 0.316940 -0.266430 
-0.004110 17.102390 -2.638060 -4.838015 -3.785342 -7.935034 -15.110004 12.952293 1.839853 4.004093 -1.141969 -7.952467 -2.780390 7.744570 28.789355 -0.526247 6.023541 2.589533 0.109180 -0.240980 0.160870 18.659798 -8.487097 5.556614 -8.657239 13.678334 -50.137122 7.832811 -23.828892 81.136004 -2.719675 -14.171149 -0.073872 -0.086190 0.394570 0.174690 -4.196204 -3.310503 -8.448063 17.098202 -9.461892 25.447016 -8.709529 -5.510675 8.802715 3.687014 -7.823286 -11.516079 -18.449262 11.016755 36.888271 -8.978790 7.537540 -16.637120 -14.905419 -3.942854 4.150078 -31.232061 4.732050 -7.289419 -105.701978 -71.782257 73.043326 -4.055598 2.531719 0.881040 0.088760 0.011780 0.070120 7.758568 7.061934 7.333970 32.311033 -6.770283 -10.678968 64.388304 61.478612 30.656715 1.947797 -1.488729 -0.469460 0.504480 0.301960 -0.281530 
0.037990 16.968080 -2.679180 -5.014917 -4.879373 -9.355006 -15.154382 12.965797 1.888577 4.030885 -1.700317 -8.936879 -2.345612 8.448292 33.580980 -0.411242 6.746223 2.318181 0.099220 -0.277970 0.182930 18.619540 -8.330708 5.643563 -9.087423 14.127425 -50.640952 7.929082 -24.955845 83.400498 -2.858919 -14.644969 -0.206064 -0.102460 0.378560 0.182530 -4.068538 -3.551694 -8.561985 16.691294 -10.028280 29.293480 -8.333099 -5.826752 7.376352 3.897275 -8.103696 -11.509787 -18.773845 11.494573 35.973797 -9.548430 7.544400 -17.755130 -16.692073 -4.690906 4.148255 -29.133700 6.084093 -7.549484 -96.696516 -72.448732 64.635917 -4.058203 2.607773 0.914260 0.063520 0.024900 0.052750 9.196651 8.135633 7.396833 30.061153 -6.729510 -10.826864 63.537229 64.904758 32.283527 1.998542 -1.433236 -0.483190 0.503510 0.314870 -0.296500 
